# xmcd
#
# Track frame offsets:
# 150
# 16906
# 33394
# 51835
# 68803
# 88818
# 107327
# 125545
# 141139
# 159235
# 177341
# 193992
# 211377
# 229606
# 246995
# 264602
# 281704
# 299777
#
# Disc length: 4104 seconds
#
#
# Revision: 0
# Processed by: cddbd v1.5.2PL0 Copyright (c) Steve Scherf et al.
# Submitted via: FreeRIP 2.944 
#
DISCID=11100612
DTITLE=McMurtry-L-LD3 - Dead-Mans-Walk03
DYEAR=1995
DGENRE=Booty Bass
TTITLE0=0301
TTITLE1=0302
TTITLE2=0303
TTITLE3=0304
TTITLE4=0305
TTITLE5=0306
TTITLE6=0307
TTITLE7=0308
TTITLE8=0309
TTITLE9=0310
TTITLE10=0311
TTITLE11=0312
TTITLE12=0313
TTITLE13=0314
TTITLE14=0315
TTITLE15=0316
TTITLE16=0317
TTITLE17=0318
EXTD=Dead Man's Walk - Lonesome Dove series 3\n1995 read by Jack Garrett by Larry McMurtry\nrecorded books - chrono1
EXTT0=
EXTT1=
EXTT2=
EXTT3=
EXTT4=
EXTT5=
EXTT6=
EXTT7=
EXTT8=
EXTT9=
EXTT10=
EXTT11=
EXTT12=
EXTT13=
EXTT14=
EXTT15=
EXTT16=
EXTT17=
PLAYORDER=
